<svg xmlns="http://www.w3.org/2000/svg" viewBox="0 0 201.7 201.7"><circle fill="#1460A6" cx="100.8" cy="100.8" r="100.8"/><path fill="#1460A6" d="M37.9 163.9V37.8H164v126.1H37.9z"/><path fill="#FFFEFE" d="M85.9 117.8v-15.1-10.5-6.9-1.1c.1-.7.4-1 1-1h18.7c.5.1.8.3.8.9v8.3c0 .2.3.2.4.1.1-.1.1-.1.1-.2 3.1-5.1 7.6-8.3 13.3-9.9 2.7-.7 5.4-1 8.2-.9 2.5.1 5 .4 7.5 1 3.1.8 6 2.1 8.5 4.2s4.3 4.8 5.6 7.8c1 2.3 1.6 4.7 2 7.2.6 3.1.8 6.3.9 9.4.1 2.9 0 5.8 0 8.7V151.4c-.1.6-.4 1-1 1h-19.2-.1c-.9 0-1.2-.3-1.3-1.3v-3.7V118c0-1.6 0-3.2-.1-4.7-.2-2.4-.5-4.7-1.4-7-.6-1.4-1.3-2.6-2.4-3.6-1.3-1.2-2.9-1.9-4.7-2.2-2-.3-4-.3-5.9.1-3.8.8-6.4 3-7.9 6.5-.7 1.6-1.1 3.3-1.3 5-.3 1.9-.4 3.8-.4 5.7-.1 7.5 0 15 0 22.6v11.1c-.1.6-.4.9-1 1-.6.1-1.1 0-1.7 0H86.9c-.6-.1-.9-.4-1-1v-.7-15.9-17.1z"/><path fill="#FDFEFF" d="M72.4 117.9V151.7c-.1.5-.3.7-.8.8h-20c-.4-.1-.7-.3-.7-.7-.1-.2-.1-.5-.1-.7v-7.9-50.5-7.8c0-.3 0-.6.1-.9.1-.4.4-.7.8-.7h19.9c.5.1.7.3.8.8v33.8zM61.7 48.8c6.9 0 12.5 5.6 12.5 12.5 0 7-5.9 12.6-12.5 12.5-7.1-.1-12.6-5.9-12.5-12.7 0-6.7 5.6-12.3 12.5-12.3z"/></svg>
