<svg xmlns="http://www.w3.org/2000/svg" viewBox="0 216.8 605.3 621.4"><path fill="#FFF" d="M390.2 405.5c-28 45-73.6 56.4-104.5 122.1-13.4 31-9.7 66.2-4.2 99.1 6.7 38.9 16.4 77.8 28 115.5 10.9 34.1 26.8 70.5 61.4 86.9s83.3 9.8 111.8-13.9c19.5-16.4 29.8-43.9 26.2-67.5-3.1-23.1-21.9-41.9-41.9-57.1s-51.8-31.7-69.6-48.8c-36.5-37.1-33.2-91.7-7.7-136.7 24.9-43.8 73.5-71.8 117.9-100.9 43.8-29.1 88.1-66.2 96.7-114.9 2.5-14 1.2-29.1-7.3-41.3-9.7-12.8-25.2-24.7-42.2-28.3-23.1-5.5-50.8-3.3-72 5.8-11.5 4.8-21.3 13.4-29.1 23.1-37.3 45.1-33.1 108.3-63.5 156.9z"/><circle fill="#FFF" cx="116" cy="484.7" r="116"/><circle fill="#DA338C" cx="166.6" cy="719.8" r="71.8"/></svg>
