<svg xmlns="http://www.w3.org/2000/svg" viewBox="0 0 199.9 199.9"><circle fill="#5EA9DE" cx="99.9" cy="99.9" r="99.9"/><path fill="#FFF" d="M166.5 63c-3.1 4.5-6.7 8.3-10.9 11.4-1.1.9-1.4 1.7-1.3 3.1.2 2.3.1 4.6-.2 6.8-.8 4.8-1.5 9.7-2.8 14.4-2.6 9.5-7.3 18-13.4 25.7-4.7 5.9-10 11-16.3 15.1-7.4 4.7-15.5 8-24.2 9.5-4.6.8-9.3 1.3-13.9 1.5-3.3.1-6.6-.4-9.9-.7-5.2-.5-10.2-1.8-15.2-3.5-4.7-1.7-9.1-3.8-13.3-6.5-.1-.1-.2-.2-.4-.3 13.6 1.1 25.8-2.1 36.8-10.7-11.6-.8-19.3-6.6-23.6-17.1 2 0 3.8.1 5.7 0 1.8-.1 3.5-.4 5.4-.8-5.7-1.6-10.5-4.4-14.3-9C51 97.3 49.2 92.1 49 86c3.6 1.8 7.2 3 11.3 3-11.3-9.2-13.9-20.3-8-33.6 13.9 16.2 31.1 25 52.2 26.4-.2-2.3-.5-4.4-.5-6.5.2-7.8 3.4-14.1 9.3-19 4.2-3.4 9-5.2 14.4-5.5 7.2-.3 13.4 1.8 18.6 6.8.9.9 1.7 1 2.9.7 4.6-1.1 8.9-2.7 13-5 .3-.1.5-.2 1-.5-2 5.8-5.5 10.1-10.7 13.2 1.7.8 6.6-.4 14-3z"/></svg>
